<svg width="135" height="74" viewBox="0 0 135 74" fill="none" xmlns="http://www.w3.org/2000/svg">
<path d="M61.827 51.084C60.208 51.084 58.704 50.814 57.313 50.273C55.922 49.732 54.721 48.963 53.709 47.963C52.696 46.965 51.907 45.782 51.341 44.42C50.775 43.06 50.49 41.537 50.49 39.862V39.783C50.49 38.244 50.754 36.786 51.28 35.409C51.808 34.032 52.542 32.831 53.487 31.805C54.432 30.779 55.56 29.969 56.87 29.374C58.179 28.781 59.63 28.484 61.222 28.484C63.03 28.484 64.597 28.806 65.92 29.456C67.24 30.102 68.34 30.975 69.218 32.068C70.095 33.161 70.743 34.416 71.163 35.833C71.581 37.251 71.789 38.728 71.789 40.267C71.789 40.509 71.782 40.767 71.77 41.038C71.754 41.309 71.736 41.593 71.71 41.892H56.603C56.9 43.293 57.513 44.355 58.447 45.072C59.378 45.786 60.533 46.142 61.909 46.142C62.934 46.142 63.853 45.967 64.663 45.617C65.473 45.265 66.309 44.7 67.173 43.916L70.695 47.035C69.67 48.305 68.43 49.297 66.972 50.012C65.514 50.725 63.798 51.084 61.827 51.084ZM65.794 38.045C65.606 36.668 65.121 35.554 64.339 34.703C63.556 33.854 62.516 33.428 61.22 33.428C59.925 33.428 58.877 33.846 58.081 34.683C57.284 35.521 56.763 36.643 56.523 38.043H65.794V38.045Z" fill="#1D1D1B"/>
<path d="M71.18 28.892H77.701L82.559 43.43L87.458 28.892H93.858L85.312 50.762H79.724L71.18 28.892Z" fill="#1D1D1B"/>
<path d="M104.466 51.084C102.847 51.084 101.343 50.814 99.952 50.273C98.558 49.732 97.358 48.963 96.348 47.963C95.335 46.965 94.546 45.782 93.98 44.42C93.411 43.06 93.128 41.537 93.128 39.862V39.783C93.128 38.244 93.392 36.786 93.918 35.409C94.442 34.032 95.181 32.831 96.124 31.805C97.068 30.779 98.196 29.969 99.506 29.374C100.815 28.781 102.266 28.484 103.859 28.484C105.668 28.484 107.233 28.806 108.554 29.456C109.879 30.102 110.979 30.975 111.856 32.068C112.733 33.161 113.38 34.416 113.8 35.833C114.218 37.251 114.428 38.728 114.428 40.267C114.428 40.509 114.421 40.767 114.408 41.038C114.392 41.309 114.374 41.593 114.346 41.892H99.245C99.54 43.293 100.155 44.355 101.087 45.072C102.017 45.786 103.171 46.142 104.548 46.142C105.573 46.142 106.49 45.967 107.302 45.617C108.112 45.265 108.948 44.7 109.814 43.916L113.337 47.035C112.31 48.305 111.067 49.297 109.609 50.012C108.151 50.725 106.437 51.084 104.466 51.084ZM108.433 38.045C108.244 36.668 107.758 35.554 106.978 34.703C106.195 33.854 105.155 33.428 103.86 33.428C102.565 33.428 101.516 33.846 100.721 34.683C99.922 35.521 99.405 36.643 99.161 38.043H108.433V38.045V38.045Z" fill="#1D1D1B"/>
<path d="M26.713 22.479H39.51C43.055 22.479 45.777 23.425 47.67 25.317C49.27 26.918 50.07 29.052 50.07 31.716V31.797C50.07 34.064 49.515 35.911 48.411 37.338C47.304 38.764 45.856 39.811 44.07 40.477L50.91 50.477H43.71L37.711 41.518H37.63H32.873V50.477H26.713V22.479V22.479ZM39.109 36.077C40.63 36.077 41.796 35.717 42.61 34.996C43.423 34.276 43.831 33.317 43.831 32.116V32.037C43.831 30.704 43.403 29.704 42.549 29.037C41.695 28.37 40.509 28.037 38.988 28.037H32.87V36.077H39.109V36.077Z" fill="#1D1D1B"/>
<path d="M121.292 33.971H114.524V28.489H134.317V33.971H127.548V51.055H121.292V33.971Z" fill="#1D1D1B"/>
<path d="M20.636 21.614L18.869 13.336L10.59 11.57L10.599 11.577C-2.413 24.589 -3.44 45.102 7.497 59.314L7.562 59.247L9.326 50.973L17.603 49.207L17.671 49.139C12.187 40.6 13.171 29.078 20.636 21.614Z" fill="#35A8E0"/>
<path d="M60.161 64.385L52.201 52.457C42.916 61.426 29.141 61.332 20.637 52.827L20.618 52.844L12.357 54.594L10.609 62.858L10.6 62.865C10.601 62.867 10.603 62.869 10.605 62.87L10.602 62.883L10.61 62.877C24.007 76.26 45.352 76.951 60.161 64.385Z" fill="#FFDC00"/>
<path d="M61.887 11.575C48.875 -1.436 28.359 -2.464 14.15 8.474L14.208 8.532L22.482 10.298L24.248 18.575L24.322 18.65C32.863 13.165 44.386 14.151 51.848 21.615H61.891L61.893 11.571L61.887 11.575Z" fill="#39A935"/>
</svg>
